<?xml version="1.0" encoding="utf-8"?>
<!-- Generator: Adobe Illustrator 26.0.1, SVG Export Plug-In . SVG Version: 6.00 Build 0)  -->
<svg version="1.1" id="Laag_1" xmlns="http://www.w3.org/2000/svg" xmlns:xlink="http://www.w3.org/1999/xlink" x="0px" y="0px"
	 viewBox="0 0 49.83 22.83" style="enable-background:new 0 0 49.83 22.83;" xml:space="preserve">
<style type="text/css">
	.st0{fill:#E06D06;}
</style>
<g>
	<path d="M7.62,21.22V6.54L1.94,6.82V1.11H19.7v5.71l-5.82-0.28v10.14l0.31,2.84l-0.31,1.7H7.62z"/>
	<path d="M21.58,21.19V5.74l-0.57-2.87l0.57-1.79h6.25v3.41l-0.28,4.52h0.85l4.29-7.93h6.79v1.7l-5.62,7.98l4.77,5.91l2.81,2.81v1.7
		h-7.53l-4.89-6.96l-1.19,0.28v3.27l0.28,1.7l-0.28,1.7H21.58z"/>
	<path class="st0" d="M45.13,21.19l-3.69-3.69l3.69-3.69l3.69,3.69L45.13,21.19z"/>
</g>
</svg>
