<?xml version="1.0" encoding="utf-8"?>
<!-- Generator: Adobe Illustrator 26.0.1, SVG Export Plug-In . SVG Version: 6.00 Build 0)  -->
<svg version="1.1" id="Laag_1" xmlns="http://www.w3.org/2000/svg" xmlns:xlink="http://www.w3.org/1999/xlink" x="0px" y="0px"
	 viewBox="0 0 200 100" style="enable-background:new 0 0 200 100;" xml:space="preserve">
<style type="text/css">
	.st0{fill:#F1EDEE;}
	.st1{fill:#E06D06;}
</style>
<g>
	<path class="st0" d="M9.96,60.03V45.34l-5.68,0.28v-5.71h17.75v5.71l-5.82-0.28v10.14l0.31,2.84l-0.31,1.7H9.96z"/>
	<path class="st0" d="M27.23,45.8l-4.2-3.64l4.2-3.61l4.2,3.61L27.23,45.8z M24.08,60.03v-9.4l-0.6-2.27l0.57-1.73h6.28v13.41H24.08
		z"/>
	<path class="st0" d="M32.57,48.35l0.88-1.73h5.37v1.22l0.26,0.17c0.21-0.19,0.5-0.41,0.87-0.67c0.37-0.26,0.81-0.49,1.33-0.7
		c0.52-0.21,1.12-0.31,1.8-0.31c1.65,0,2.85,0.57,3.61,1.7c0.42-0.45,0.94-0.86,1.58-1.21c0.63-0.35,1.42-0.53,2.34-0.53
		c1.7,0,3.03,0.48,3.98,1.45c0.95,0.97,1.42,2.32,1.42,4.06v3.64l0.6,2.84L56,60.03h-6.28v-7.16c0-0.61-0.08-1.04-0.24-1.29
		c-0.16-0.26-0.43-0.38-0.81-0.38c-0.36,0-0.62,0.16-0.8,0.48c-0.17,0.32-0.26,0.73-0.26,1.22v7.13h-6.28v-7.19
		c0-0.57-0.13-0.99-0.38-1.26c-0.26-0.27-0.69-0.41-1.29-0.41l-0.28,0.28v8.58h-6.25v-8.55L32.57,48.35z"/>
	<path class="st0" d="M70.06,60.31c-0.89,0-1.75-0.23-2.57-0.68c-0.82-0.45-1.5-1.17-2.03-2.16c-0.53-0.98-0.8-2.27-0.8-3.86
		c0-1.76,0.26-3.17,0.78-4.23c0.52-1.06,1.2-1.83,2.03-2.32c0.83-0.48,1.69-0.72,2.58-0.72c0.83,0,1.51,0.08,2.02,0.24
		c0.51,0.16,0.88,0.31,1.11,0.44l-0.28-5.37l0.28-1.7h6.28v15.54l0.57,2.84l-0.57,1.73h-5.99v-1.39l-0.28-0.14
		c-0.21,0.36-0.43,0.66-0.67,0.89c-0.24,0.24-0.55,0.45-0.95,0.63C71.17,60.22,70.67,60.31,70.06,60.31z M72.9,55.62l0.28-0.28
		v-2.73c0-0.44-0.1-0.78-0.28-1.04c-0.19-0.26-0.44-0.38-0.74-0.38c-0.38,0-0.68,0.14-0.91,0.41c-0.23,0.28-0.34,0.75-0.34,1.44
		c0,0.85,0.2,1.5,0.6,1.93C71.91,55.41,72.37,55.62,72.9,55.62z"/>
	<path class="st0" d="M89.55,60.31c-1.46,0-2.78-0.21-3.96-0.64c-1.18-0.43-2.12-1.15-2.81-2.16c-0.69-1.01-1.04-2.41-1.04-4.19
		c0-1.25,0.21-2.32,0.64-3.21c0.43-0.89,1-1.61,1.72-2.17c0.72-0.56,1.52-0.97,2.41-1.22c0.89-0.26,1.81-0.38,2.75-0.38
		c1.19,0,2.19,0.08,3,0.23c0.8,0.15,1.45,0.32,1.95,0.51c0.49,0.19,0.87,0.36,1.14,0.51l1.42,4.52l-0.57,1.76h-8.24
		c0.08,0.53,0.35,0.98,0.82,1.35c0.47,0.37,1.3,0.55,2.47,0.55c1.12,0,2.05-0.12,2.78-0.37s1.27-0.44,1.59-0.57v4.37
		c-0.38,0.21-0.9,0.4-1.56,0.57c-0.66,0.17-1.39,0.3-2.17,0.4C91.1,60.26,90.32,60.31,89.55,60.31z M87.87,52.02l2.9-0.54
		l-0.26-0.91c-0.27-0.15-0.59-0.23-0.97-0.23c-0.63,0-1.07,0.17-1.32,0.51C87.97,51.19,87.85,51.58,87.87,52.02z"/>
	<path class="st0" d="M106.25,60.03V44.57l-0.57-2.87l0.57-1.79h6.25v3.41l-0.28,4.52h0.85l4.29-7.93h6.79v1.7l-5.62,7.98l4.77,5.91
		l2.81,2.81v1.7h-7.53l-4.89-6.96l-1.19,0.28v3.27l0.28,1.7l-0.28,1.7H106.25z"/>
	<path class="st0" d="M133.94,60.31c-2.31,0-4.15-0.55-5.51-1.65c-1.36-1.1-2.04-2.88-2.04-5.34c0-2.48,0.68-4.26,2.04-5.35
		c1.36-1.09,3.2-1.63,5.51-1.63c2.39,0,4.23,0.54,5.54,1.63c1.31,1.09,1.96,2.87,1.96,5.35c0,2.46-0.65,4.24-1.96,5.34
		C138.18,59.76,136.33,60.31,133.94,60.31z M133.94,55.77c0.36,0,0.65-0.15,0.88-0.44c0.23-0.29,0.34-0.96,0.34-2
		c0-1.06-0.11-1.73-0.33-2.02c-0.22-0.28-0.52-0.43-0.89-0.43c-0.36,0-0.66,0.14-0.91,0.43c-0.25,0.28-0.37,0.96-0.37,2.02
		c0,1.04,0.12,1.71,0.37,2C133.28,55.62,133.58,55.77,133.94,55.77z"/>
	<path class="st0" d="M143.74,60.03v-8.89l-0.6-2.84l0.6-1.7h5l0.57,0.65c0.44-0.32,0.85-0.56,1.25-0.71
		c0.4-0.15,0.86-0.23,1.39-0.23c0.38,0,0.76,0.03,1.14,0.08c0.38,0.06,0.67,0.13,0.88,0.23l2.98,2.7l-2.41,3.92l-3.75-2.13
		l-0.85,0.28v8.63H143.74z"/>
	<path class="st0" d="M164.42,60.31c-1.67,0-2.89-0.34-3.66-1.02s-1.16-1.68-1.16-2.98v-5.34h-2.36v-3.55l2.07-1.39l2.02-3.52h4.49
		v4.12h4.26v4.55h-4.26v4.37l4.26-0.03v3.95c-0.68,0.17-1.3,0.31-1.86,0.43s-1.17,0.21-1.83,0.3
		C165.72,60.27,165.06,60.31,164.42,60.31z"/>
	<path class="st0" d="M179.3,60.31c-1.46,0-2.78-0.21-3.96-0.64c-1.18-0.43-2.12-1.15-2.81-2.16c-0.69-1.01-1.04-2.41-1.04-4.19
		c0-1.25,0.21-2.32,0.64-3.21c0.43-0.89,1-1.61,1.72-2.17c0.72-0.56,1.52-0.97,2.41-1.22c0.89-0.26,1.81-0.38,2.76-0.38
		c1.19,0,2.19,0.08,3,0.23c0.8,0.15,1.45,0.32,1.95,0.51c0.49,0.19,0.87,0.36,1.14,0.51l1.42,4.52l-0.57,1.76h-8.24
		c0.08,0.53,0.35,0.98,0.82,1.35c0.47,0.37,1.3,0.55,2.47,0.55c1.12,0,2.05-0.12,2.78-0.37c0.74-0.25,1.27-0.44,1.59-0.57v4.37
		c-0.38,0.21-0.9,0.4-1.56,0.57c-0.66,0.17-1.39,0.3-2.17,0.4C180.86,60.26,180.08,60.31,179.3,60.31z M177.63,52.02l2.9-0.54
		l-0.26-0.91c-0.27-0.15-0.59-0.23-0.97-0.23c-0.63,0-1.07,0.17-1.32,0.51S177.61,51.58,177.63,52.02z"/>
	<path class="st1" d="M192.03,61.45l-3.69-3.69l3.69-3.69l3.69,3.69L192.03,61.45z"/>
	<polygon class="st1" points="27.23,45.78 23.05,42.16 27.23,38.57 31.41,42.16 	"/>
</g>
</svg>
